<svg xmlns="http://www.w3.org/2000/svg" width="900" height="650" viewBox="0 0 900 650">
	<text x="450" y="40" text-anchor="middle" font-family="sans-serif" font-size="36" font-weight="bold" fill="#163a7a">Heatmap Charts - Matrix Visualization</text>
	<text x="120" y="100" font-family="sans-serif" font-size="16" font-weight="bold" fill="#333">Website Traffic by Day</text>
	<g id="hmap1" transform="translate(100,130)">
		<rect x="0" y="0" width="39" height="39" fill="#0571B0" stroke="white" stroke-width="1"/>
		<text x="20" y="24" text-anchor="middle" font-family="sans-serif" font-size="10" fill="white">12</text>
		<rect x="40" y="0" width="39" height="39" fill="#2E8BC0" stroke="white" stroke-width="1"/>
		<text x="60" y="24" text-anchor="middle" font-family="sans-serif" font-size="10" fill="white">19</text>
		<rect x="80" y="0" width="39" height="39" fill="#0571B0" stroke="white" stroke-width="1"/>
		<text x="100" y="24" text-anchor="middle" font-family="sans-serif" font-size="10" fill="white">8</text>
		<rect x="120" y="0" width="39" height="39" fill="#0571B0" stroke="white" stroke-width="1"/>
		<text x="140" y="24" text-anchor="middle" font-family="sans-serif" font-size="10" fill="white">15</text>
		<rect x="160" y="0" width="39" height="39" fill="#2E8BC0" stroke="white" stroke-width="1"/>
		<text x="180" y="24" text-anchor="middle" font-family="sans-serif" font-size="10" fill="white">22</text>
		<rect x="200" y="0" width="39" height="39" fill="#2E8BC0" stroke="white" stroke-width="1"/>
		<text x="220" y="24" text-anchor="middle" font-family="sans-serif" font-size="10" fill="white">17</text>
		<rect x="240" y="0" width="39" height="39" fill="#2E8BC0" stroke="white" stroke-width="1"/>
		<text x="260" y="24" text-anchor="middle" font-family="sans-serif" font-size="10" fill="white">25</text>
		<rect x="0" y="40" width="39" height="39" fill="#92C5DE" stroke="white" stroke-width="1"/>
		<text x="20" y="64" text-anchor="middle" font-family="sans-serif" font-size="10" fill="black">45</text>
		<rect x="40" y="40" width="39" height="39" fill="#92C5DE" stroke="white" stroke-width="1"/>
		<text x="60" y="64" text-anchor="middle" font-family="sans-serif" font-size="10" fill="black">38</text>
		<rect x="80" y="40" width="39" height="39" fill="#92C5DE" stroke="white" stroke-width="1"/>
		<text x="100" y="64" text-anchor="middle" font-family="sans-serif" font-size="10" fill="black">42</text>
		<rect x="120" y="40" width="39" height="39" fill="#92C5DE" stroke="white" stroke-width="1"/>
		<text x="140" y="64" text-anchor="middle" font-family="sans-serif" font-size="10" fill="black">35</text>
		<rect x="160" y="40" width="39" height="39" fill="#92C5DE" stroke="white" stroke-width="1"/>
		<text x="180" y="64" text-anchor="middle" font-family="sans-serif" font-size="10" fill="black">48</text>
		<rect x="200" y="40" width="39" height="39" fill="#92C5DE" stroke="white" stroke-width="1"/>
		<text x="220" y="64" text-anchor="middle" font-family="sans-serif" font-size="10" fill="black">50</text>
		<rect x="240" y="40" width="39" height="39" fill="#92C5DE" stroke="white" stroke-width="1"/>
		<text x="260" y="64" text-anchor="middle" font-family="sans-serif" font-size="10" fill="black">43</text>
		<rect x="0" y="80" width="39" height="39" fill="#0571B0" stroke="white" stroke-width="1"/>
		<text x="20" y="104" text-anchor="middle" font-family="sans-serif" font-size="10" fill="white">8</text>
		<rect x="40" y="80" width="39" height="39" fill="#0571B0" stroke="white" stroke-width="1"/>
		<text x="60" y="104" text-anchor="middle" font-family="sans-serif" font-size="10" fill="white">12</text>
		<rect x="80" y="80" width="39" height="39" fill="#0571B0" stroke="white" stroke-width="1"/>
		<text x="100" y="104" text-anchor="middle" font-family="sans-serif" font-size="10" fill="white">6</text>
		<rect x="120" y="80" width="39" height="39" fill="#0571B0" stroke="white" stroke-width="1"/>
		<text x="140" y="104" text-anchor="middle" font-family="sans-serif" font-size="10" fill="white">14</text>
		<rect x="160" y="80" width="39" height="39" fill="#0571B0" stroke="white" stroke-width="1"/>
		<text x="180" y="104" text-anchor="middle" font-family="sans-serif" font-size="10" fill="white">10</text>
		<rect x="200" y="80" width="39" height="39" fill="#2E8BC0" stroke="white" stroke-width="1"/>
		<text x="220" y="104" text-anchor="middle" font-family="sans-serif" font-size="10" fill="white">16</text>
		<rect x="240" y="80" width="39" height="39" fill="#0571B0" stroke="white" stroke-width="1"/>
		<text x="260" y="104" text-anchor="middle" font-family="sans-serif" font-size="10" fill="white">9</text>
		<rect x="0" y="120" width="39" height="39" fill="#E08214" stroke="white" stroke-width="1"/>
		<text x="20" y="144" text-anchor="middle" font-family="sans-serif" font-size="10" fill="black">100</text>
		<rect x="40" y="120" width="39" height="39" fill="#E08214" stroke="white" stroke-width="1"/>
		<text x="60" y="144" text-anchor="middle" font-family="sans-serif" font-size="10" fill="black">95</text>
		<rect x="80" y="120" width="39" height="39" fill="#E08214" stroke="white" stroke-width="1"/>
		<text x="100" y="144" text-anchor="middle" font-family="sans-serif" font-size="10" fill="black">105</text>
		<rect x="120" y="120" width="39" height="39" fill="#E08214" stroke="white" stroke-width="1"/>
		<text x="140" y="144" text-anchor="middle" font-family="sans-serif" font-size="10" fill="black">98</text>
		<rect x="160" y="120" width="39" height="39" fill="#B35806" stroke="white" stroke-width="1"/>
		<text x="180" y="144" text-anchor="middle" font-family="sans-serif" font-size="10" fill="white">110</text>
		<rect x="200" y="120" width="39" height="39" fill="#B35806" stroke="white" stroke-width="1"/>
		<text x="220" y="144" text-anchor="middle" font-family="sans-serif" font-size="10" fill="white">108</text>
		<rect x="240" y="120" width="39" height="39" fill="#B35806" stroke="white" stroke-width="1"/>
		<text x="260" y="144" text-anchor="middle" font-family="sans-serif" font-size="10" fill="white">115</text>
		<rect x="0" y="160" width="39" height="39" fill="#2E8BC0" stroke="white" stroke-width="1"/>
		<text x="20" y="184" text-anchor="middle" font-family="sans-serif" font-size="10" fill="white">25</text>
		<rect x="40" y="160" width="39" height="39" fill="#2E8BC0" stroke="white" stroke-width="1"/>
		<text x="60" y="184" text-anchor="middle" font-family="sans-serif" font-size="10" fill="white">30</text>
		<rect x="80" y="160" width="39" height="39" fill="#2E8BC0" stroke="white" stroke-width="1"/>
		<text x="100" y="184" text-anchor="middle" font-family="sans-serif" font-size="10" fill="white">28</text>
		<rect x="120" y="160" width="39" height="39" fill="#2E8BC0" stroke="white" stroke-width="1"/>
		<text x="140" y="184" text-anchor="middle" font-family="sans-serif" font-size="10" fill="white">32</text>
		<rect x="160" y="160" width="39" height="39" fill="#92C5DE" stroke="white" stroke-width="1"/>
		<text x="180" y="184" text-anchor="middle" font-family="sans-serif" font-size="10" fill="black">35</text>
		<rect x="200" y="160" width="39" height="39" fill="#2E8BC0" stroke="white" stroke-width="1"/>
		<text x="220" y="184" text-anchor="middle" font-family="sans-serif" font-size="10" fill="white">33</text>
		<rect x="240" y="160" width="39" height="39" fill="#92C5DE" stroke="white" stroke-width="1"/>
		<text x="260" y="184" text-anchor="middle" font-family="sans-serif" font-size="10" fill="black">38</text>
		<text x="-10" y="24" text-anchor="end" font-family="sans-serif" font-size="11" fill="#333">Week 1</text>
		<text x="-10" y="64" text-anchor="end" font-family="sans-serif" font-size="11" fill="#333">Week 2</text>
		<text x="-10" y="104" text-anchor="end" font-family="sans-serif" font-size="11" fill="#333">Week 3</text>
		<text x="-10" y="144" text-anchor="end" font-family="sans-serif" font-size="11" fill="#333">Week 4</text>
		<text x="-10" y="184" text-anchor="end" font-family="sans-serif" font-size="11" fill="#333">Week 5</text>
		<text x="20" y="-5" text-anchor="middle" font-family="sans-serif" font-size="11" fill="#333">Mon</text>
		<text x="60" y="-5" text-anchor="middle" font-family="sans-serif" font-size="11" fill="#333">Tue</text>
		<text x="100" y="-5" text-anchor="middle" font-family="sans-serif" font-size="11" fill="#333">Wed</text>
		<text x="140" y="-5" text-anchor="middle" font-family="sans-serif" font-size="11" fill="#333">Thu</text>
		<text x="180" y="-5" text-anchor="middle" font-family="sans-serif" font-size="11" fill="#333">Fri</text>
		<text x="220" y="-5" text-anchor="middle" font-family="sans-serif" font-size="11" fill="#333">Sat</text>
		<text x="260" y="-5" text-anchor="middle" font-family="sans-serif" font-size="11" fill="#333">Sun</text>
	</g>
	<text x="520" y="100" font-family="sans-serif" font-size="16" font-weight="bold" fill="#333">Temperature Distribution</text>
	<g id="hmap2" transform="translate(500,130)">
		<rect x="0" y="0" width="39" height="39" fill="#7986CB" stroke="white" stroke-width="1"/>
		<text x="20" y="24" text-anchor="middle" font-family="sans-serif" font-size="10" fill="black">15</text>
		<rect x="40" y="0" width="39" height="39" fill="#FFEB3B" stroke="white" stroke-width="1"/>
		<text x="60" y="24" text-anchor="middle" font-family="sans-serif" font-size="10" fill="black">16</text>
		<rect x="80" y="0" width="39" height="39" fill="#FFEB3B" stroke="white" stroke-width="1"/>
		<text x="100" y="24" text-anchor="middle" font-family="sans-serif" font-size="10" fill="black">17</text>
		<rect x="120" y="0" width="39" height="39" fill="#FFA726" stroke="white" stroke-width="1"/>
		<text x="140" y="24" text-anchor="middle" font-family="sans-serif" font-size="10" fill="black">18</text>
		<rect x="160" y="0" width="39" height="39" fill="#FFA726" stroke="white" stroke-width="1"/>
		<text x="180" y="24" text-anchor="middle" font-family="sans-serif" font-size="10" fill="black">19</text>
		<rect x="200" y="0" width="39" height="39" fill="#D84315" stroke="white" stroke-width="1"/>
		<text x="220" y="24" text-anchor="middle" font-family="sans-serif" font-size="10" fill="white">20</text>
		<rect x="240" y="0" width="39" height="39" fill="#D84315" stroke="white" stroke-width="1"/>
		<text x="260" y="24" text-anchor="middle" font-family="sans-serif" font-size="10" fill="white">21</text>
		<rect x="0" y="40" width="39" height="39" fill="#7986CB" stroke="white" stroke-width="1"/>
		<text x="20" y="64" text-anchor="middle" font-family="sans-serif" font-size="10" fill="black">14</text>
		<rect x="40" y="40" width="39" height="39" fill="#7986CB" stroke="white" stroke-width="1"/>
		<text x="60" y="64" text-anchor="middle" font-family="sans-serif" font-size="10" fill="black">15</text>
		<rect x="80" y="40" width="39" height="39" fill="#FFEB3B" stroke="white" stroke-width="1"/>
		<text x="100" y="64" text-anchor="middle" font-family="sans-serif" font-size="10" fill="black">16</text>
		<rect x="120" y="40" width="39" height="39" fill="#FFEB3B" stroke="white" stroke-width="1"/>
		<text x="140" y="64" text-anchor="middle" font-family="sans-serif" font-size="10" fill="black">17</text>
		<rect x="160" y="40" width="39" height="39" fill="#FFA726" stroke="white" stroke-width="1"/>
		<text x="180" y="64" text-anchor="middle" font-family="sans-serif" font-size="10" fill="black">18</text>
		<rect x="200" y="40" width="39" height="39" fill="#FFA726" stroke="white" stroke-width="1"/>
		<text x="220" y="64" text-anchor="middle" font-family="sans-serif" font-size="10" fill="black">19</text>
		<rect x="240" y="40" width="39" height="39" fill="#D84315" stroke="white" stroke-width="1"/>
		<text x="260" y="64" text-anchor="middle" font-family="sans-serif" font-size="10" fill="white">20</text>
		<rect x="0" y="80" width="39" height="39" fill="#3F51B5" stroke="white" stroke-width="1"/>
		<text x="20" y="104" text-anchor="middle" font-family="sans-serif" font-size="10" fill="white">12</text>
		<rect x="40" y="80" width="39" height="39" fill="#3F51B5" stroke="white" stroke-width="1"/>
		<text x="60" y="104" text-anchor="middle" font-family="sans-serif" font-size="10" fill="white">13</text>
		<rect x="80" y="80" width="39" height="39" fill="#7986CB" stroke="white" stroke-width="1"/>
		<text x="100" y="104" text-anchor="middle" font-family="sans-serif" font-size="10" fill="black">14</text>
		<rect x="120" y="80" width="39" height="39" fill="#7986CB" stroke="white" stroke-width="1"/>
		<text x="140" y="104" text-anchor="middle" font-family="sans-serif" font-size="10" fill="black">15</text>
		<rect x="160" y="80" width="39" height="39" fill="#FFEB3B" stroke="white" stroke-width="1"/>
		<text x="180" y="104" text-anchor="middle" font-family="sans-serif" font-size="10" fill="black">16</text>
		<rect x="200" y="80" width="39" height="39" fill="#FFEB3B" stroke="white" stroke-width="1"/>
		<text x="220" y="104" text-anchor="middle" font-family="sans-serif" font-size="10" fill="black">17</text>
		<rect x="240" y="80" width="39" height="39" fill="#FFA726" stroke="white" stroke-width="1"/>
		<text x="260" y="104" text-anchor="middle" font-family="sans-serif" font-size="10" fill="black">18</text>
		<rect x="0" y="120" width="39" height="39" fill="#283593" stroke="white" stroke-width="1"/>
		<text x="20" y="144" text-anchor="middle" font-family="sans-serif" font-size="10" fill="white">10</text>
		<rect x="40" y="120" width="39" height="39" fill="#283593" stroke="white" stroke-width="1"/>
		<text x="60" y="144" text-anchor="middle" font-family="sans-serif" font-size="10" fill="white">11</text>
		<rect x="80" y="120" width="39" height="39" fill="#3F51B5" stroke="white" stroke-width="1"/>
		<text x="100" y="144" text-anchor="middle" font-family="sans-serif" font-size="10" fill="white">12</text>
		<rect x="120" y="120" width="39" height="39" fill="#3F51B5" stroke="white" stroke-width="1"/>
		<text x="140" y="144" text-anchor="middle" font-family="sans-serif" font-size="10" fill="white">13</text>
		<rect x="160" y="120" width="39" height="39" fill="#7986CB" stroke="white" stroke-width="1"/>
		<text x="180" y="144" text-anchor="middle" font-family="sans-serif" font-size="10" fill="black">14</text>
		<rect x="200" y="120" width="39" height="39" fill="#7986CB" stroke="white" stroke-width="1"/>
		<text x="220" y="144" text-anchor="middle" font-family="sans-serif" font-size="10" fill="black">15</text>
		<rect x="240" y="120" width="39" height="39" fill="#FFEB3B" stroke="white" stroke-width="1"/>
		<text x="260" y="144" text-anchor="middle" font-family="sans-serif" font-size="10" fill="black">16</text>
		<rect x="0" y="160" width="39" height="39" fill="#1A237E" stroke="white" stroke-width="1"/>
		<text x="20" y="184" text-anchor="middle" font-family="sans-serif" font-size="10" fill="white">8</text>
		<rect x="40" y="160" width="39" height="39" fill="#1A237E" stroke="white" stroke-width="1"/>
		<text x="60" y="184" text-anchor="middle" font-family="sans-serif" font-size="10" fill="white">9</text>
		<rect x="80" y="160" width="39" height="39" fill="#283593" stroke="white" stroke-width="1"/>
		<text x="100" y="184" text-anchor="middle" font-family="sans-serif" font-size="10" fill="white">10</text>
		<rect x="120" y="160" width="39" height="39" fill="#283593" stroke="white" stroke-width="1"/>
		<text x="140" y="184" text-anchor="middle" font-family="sans-serif" font-size="10" fill="white">11</text>
		<rect x="160" y="160" width="39" height="39" fill="#3F51B5" stroke="white" stroke-width="1"/>
		<text x="180" y="184" text-anchor="middle" font-family="sans-serif" font-size="10" fill="white">12</text>
		<rect x="200" y="160" width="39" height="39" fill="#3F51B5" stroke="white" stroke-width="1"/>
		<text x="220" y="184" text-anchor="middle" font-family="sans-serif" font-size="10" fill="white">13</text>
		<rect x="240" y="160" width="39" height="39" fill="#7986CB" stroke="white" stroke-width="1"/>
		<text x="260" y="184" text-anchor="middle" font-family="sans-serif" font-size="10" fill="black">14</text>
		<text x="-10" y="24" text-anchor="end" font-family="sans-serif" font-size="11" fill="#333">Week 1</text>
		<text x="-10" y="64" text-anchor="end" font-family="sans-serif" font-size="11" fill="#333">Week 2</text>
		<text x="-10" y="104" text-anchor="end" font-family="sans-serif" font-size="11" fill="#333">Week 3</text>
		<text x="-10" y="144" text-anchor="end" font-family="sans-serif" font-size="11" fill="#333">Week 4</text>
		<text x="-10" y="184" text-anchor="end" font-family="sans-serif" font-size="11" fill="#333">Week 5</text>
		<text x="20" y="-5" text-anchor="middle" font-family="sans-serif" font-size="11" fill="#333">Mon</text>
		<text x="60" y="-5" text-anchor="middle" font-family="sans-serif" font-size="11" fill="#333">Tue</text>
		<text x="100" y="-5" text-anchor="middle" font-family="sans-serif" font-size="11" fill="#333">Wed</text>
		<text x="140" y="-5" text-anchor="middle" font-family="sans-serif" font-size="11" fill="#333">Thu</text>
		<text x="180" y="-5" text-anchor="middle" font-family="sans-serif" font-size="11" fill="#333">Fri</text>
		<text x="220" y="-5" text-anchor="middle" font-family="sans-serif" font-size="11" fill="#333">Sat</text>
		<text x="260" y="-5" text-anchor="middle" font-family="sans-serif" font-size="11" fill="#333">Sun</text>
	</g>
</svg>
