<svg xmlns="http://www.w3.org/2000/svg" width="1000" height="550" viewBox="0 0 1000 550" font-family="Helvetica, Arial, sans-serif">
<rect x="0" y="0" width="1000" height="550" fill="white"/>
<text x="500" y="40" text-anchor="middle" font-size="36" font-weight="bold" fill="#163a7a">Radar Charts - Multi-Criteria Evaluation</text>
<text x="250" y="100" text-anchor="middle" font-size="16" font-weight="bold" fill="#333">Employee Skills Assessment</text>
<circle cx="250" cy="280" r="30" fill="none" stroke="#E6E6E6" stroke-width="1"/>
<circle cx="250" cy="280" r="60" fill="none" stroke="#E6E6E6" stroke-width="1"/>
<circle cx="250" cy="280" r="90" fill="none" stroke="#E6E6E6" stroke-width="1"/>
<circle cx="250" cy="280" r="120" fill="none" stroke="#E6E6E6" stroke-width="1"/>
<circle cx="250" cy="280" r="150" fill="none" stroke="#E6E6E6" stroke-width="1"/>
<line x1="250" y1="280" x2="250" y2="130" stroke="#999" stroke-width="1"/>
<text x="250" y="107.5" text-anchor="middle" font-size="12" font-weight="bold" fill="#333" dy="4">Technical</text>
<line x1="250" y1="280" x2="379.9" y2="205" stroke="#999" stroke-width="1"/>
<text x="399.39" y="193.75" text-anchor="middle" font-size="12" font-weight="bold" fill="#333" dy="4">Communication</text>
<line x1="250" y1="280" x2="379.9" y2="355" stroke="#999" stroke-width="1"/>
<text x="399.39" y="366.25" text-anchor="middle" font-size="12" font-weight="bold" fill="#333" dy="4">Leadership</text>
<line x1="250" y1="280" x2="250" y2="430" stroke="#999" stroke-width="1"/>
<text x="250" y="452.5" text-anchor="middle" font-size="12" font-weight="bold" fill="#333" dy="4">Problem-Solving</text>
<line x1="250" y1="280" x2="120.1" y2="355" stroke="#999" stroke-width="1"/>
<text x="100.61" y="366.25" text-anchor="middle" font-size="12" font-weight="bold" fill="#333" dy="4">Teamwork</text>
<line x1="250" y1="280" x2="120.1" y2="205" stroke="#999" stroke-width="1"/>
<text x="100.61" y="193.75" text-anchor="middle" font-size="12" font-weight="bold" fill="#333" dy="4">Creativity</text>
<polygon points="250,145 353.92,220 340.93,332.5 250,415 146.08,340 159.07,227.5" fill="#FF6B6B" fill-opacity="0.25" stroke="#FF6B6B" stroke-width="2"/>
<circle cx="250" cy="145" r="4" fill="#FF6B6B" stroke="white" stroke-width="1"/>
<circle cx="353.92" cy="220" r="4" fill="#FF6B6B" stroke="white" stroke-width="1"/>
<circle cx="340.93" cy="332.5" r="4" fill="#FF6B6B" stroke="white" stroke-width="1"/>
<circle cx="250" cy="415" r="4" fill="#FF6B6B" stroke="white" stroke-width="1"/>
<circle cx="146.08" cy="340" r="4" fill="#FF6B6B" stroke="white" stroke-width="1"/>
<circle cx="159.07" cy="227.5" r="4" fill="#FF6B6B" stroke="white" stroke-width="1"/>
<polygon points="250,175 366.91,212.5 353.92,340 250,385 133.09,347.5 146.08,220" fill="#4ECDC4" fill-opacity="0.25" stroke="#4ECDC4" stroke-width="2"/>
<circle cx="250" cy="175" r="4" fill="#4ECDC4" stroke="white" stroke-width="1"/>
<circle cx="366.91" cy="212.5" r="4" fill="#4ECDC4" stroke="white" stroke-width="1"/>
<circle cx="353.92" cy="340" r="4" fill="#4ECDC4" stroke="white" stroke-width="1"/>
<circle cx="250" cy="385" r="4" fill="#4ECDC4" stroke="white" stroke-width="1"/>
<circle cx="133.09" cy="347.5" r="4" fill="#4ECDC4" stroke="white" stroke-width="1"/>
<circle cx="146.08" cy="220" r="4" fill="#4ECDC4" stroke="white" stroke-width="1"/>
<polygon points="250,160 340.93,227.5 366.91,347.5 250,400 159.07,332.5 133.09,212.5" fill="#45B7D1" fill-opacity="0.25" stroke="#45B7D1" stroke-width="2"/>
<circle cx="250" cy="160" r="4" fill="#45B7D1" stroke="white" stroke-width="1"/>
<circle cx="340.93" cy="227.5" r="4" fill="#45B7D1" stroke="white" stroke-width="1"/>
<circle cx="366.91" cy="347.5" r="4" fill="#45B7D1" stroke="white" stroke-width="1"/>
<circle cx="250" cy="400" r="4" fill="#45B7D1" stroke="white" stroke-width="1"/>
<circle cx="159.07" cy="332.5" r="4" fill="#45B7D1" stroke="white" stroke-width="1"/>
<circle cx="133.09" cy="212.5" r="4" fill="#45B7D1" stroke="white" stroke-width="1"/>
<text x="750" y="100" text-anchor="middle" font-size="16" font-weight="bold" fill="#333">Product Feature Comparison</text>
<circle cx="750" cy="280" r="30" fill="none" stroke="#E6E6E6" stroke-width="1"/>
<circle cx="750" cy="280" r="60" fill="none" stroke="#E6E6E6" stroke-width="1"/>
<circle cx="750" cy="280" r="90" fill="none" stroke="#E6E6E6" stroke-width="1"/>
<circle cx="750" cy="280" r="120" fill="none" stroke="#E6E6E6" stroke-width="1"/>
<circle cx="750" cy="280" r="150" fill="none" stroke="#E6E6E6" stroke-width="1"/>
<line x1="750" y1="280" x2="750" y2="130" stroke="#999" stroke-width="1"/>
<text x="750" y="107.5" text-anchor="middle" font-size="12" font-weight="bold" fill="#333" dy="4">Performance</text>
<line x1="750" y1="280" x2="879.9" y2="205" stroke="#999" stroke-width="1"/>
<text x="899.39" y="193.75" text-anchor="middle" font-size="12" font-weight="bold" fill="#333" dy="4">Design</text>
<line x1="750" y1="280" x2="879.9" y2="355" stroke="#999" stroke-width="1"/>
<text x="899.39" y="366.25" text-anchor="middle" font-size="12" font-weight="bold" fill="#333" dy="4">Usability</text>
<line x1="750" y1="280" x2="750" y2="430" stroke="#999" stroke-width="1"/>
<text x="750" y="452.5" text-anchor="middle" font-size="12" font-weight="bold" fill="#333" dy="4">Support</text>
<line x1="750" y1="280" x2="620.1" y2="355" stroke="#999" stroke-width="1"/>
<text x="600.61" y="366.25" text-anchor="middle" font-size="12" font-weight="bold" fill="#333" dy="4">Price</text>
<line x1="750" y1="280" x2="620.1" y2="205" stroke="#999" stroke-width="1"/>
<text x="600.61" y="193.75" text-anchor="middle" font-size="12" font-weight="bold" fill="#333" dy="4">Reliability</text>
<polygon points="750,160 840.93,227.5 866.91,347.5 750,370 685.05,317.5 633.09,212.5" fill="#FFD93D" fill-opacity="0.25" stroke="#FFD93D" stroke-width="2"/>
<circle cx="750" cy="160" r="4" fill="#FFD93D" stroke="white" stroke-width="1"/>
<circle cx="840.93" cy="227.5" r="4" fill="#FFD93D" stroke="white" stroke-width="1"/>
<circle cx="866.91" cy="347.5" r="4" fill="#FFD93D" stroke="white" stroke-width="1"/>
<circle cx="750" cy="370" r="4" fill="#FFD93D" stroke="white" stroke-width="1"/>
<circle cx="685.05" cy="317.5" r="4" fill="#FFD93D" stroke="white" stroke-width="1"/>
<circle cx="633.09" cy="212.5" r="4" fill="#FFD93D" stroke="white" stroke-width="1"/>
<polygon points="750,175 866.91,212.5 840.93,332.5 750,400 646.08,340 659.07,227.5" fill="#6BCB77" fill-opacity="0.25" stroke="#6BCB77" stroke-width="2"/>
<circle cx="750" cy="175" r="4" fill="#6BCB77" stroke="white" stroke-width="1"/>
<circle cx="866.91" cy="212.5" r="4" fill="#6BCB77" stroke="white" stroke-width="1"/>
<circle cx="840.93" cy="332.5" r="4" fill="#6BCB77" stroke="white" stroke-width="1"/>
<circle cx="750" cy="400" r="4" fill="#6BCB77" stroke="white" stroke-width="1"/>
<circle cx="646.08" cy="340" r="4" fill="#6BCB77" stroke="white" stroke-width="1"/>
<circle cx="659.07" cy="227.5" r="4" fill="#6BCB77" stroke="white" stroke-width="1"/>
<polygon points="750,145 853.92,220 853.92,340 750,415 659.07,332.5 646.08,220" fill="#4D96FF" fill-opacity="0.25" stroke="#4D96FF" stroke-width="2"/>
<circle cx="750" cy="145" r="4" fill="#4D96FF" stroke="white" stroke-width="1"/>
<circle cx="853.92" cy="220" r="4" fill="#4D96FF" stroke="white" stroke-width="1"/>
<circle cx="853.92" cy="340" r="4" fill="#4D96FF" stroke="white" stroke-width="1"/>
<circle cx="750" cy="415" r="4" fill="#4D96FF" stroke="white" stroke-width="1"/>
<circle cx="659.07" cy="332.5" r="4" fill="#4D96FF" stroke="white" stroke-width="1"/>
<circle cx="646.08" cy="220" r="4" fill="#4D96FF" stroke="white" stroke-width="1"/>
<rect x="920" y="130" width="12" height="12" fill="#FFD93D"/>
<text x="938" y="140" font-size="11" fill="#333">Product A</text>
<rect x="920" y="150" width="12" height="12" fill="#6BCB77"/>
<text x="938" y="160" font-size="11" fill="#333">Product B</text>
<rect x="920" y="170" width="12" height="12" fill="#4D96FF"/>
<text x="938" y="180" font-size="11" fill="#333">Product C</text>
</svg>