<svg xmlns="http://www.w3.org/2000/svg" width="620" height="260" viewBox="0 0 620 260" font-family="Helvetica, Arial, sans-serif">
<rect x="0" y="0" width="620" height="260" fill="white"/>
<polygon points="110,65 121.93,95.22 153,85.71 136.81,113.88 163.62,132.24 131.5,137.15 133.86,169.55 110,147.5 86.14,169.55 88.5,137.15 56.38,132.24 83.19,113.88 67,85.71 98.07,95.22" fill="khaki" stroke="#b8860b" stroke-width="2"/>
<polygon points="260,65 265.72,93.1 282.37,69.75 276.16,97.75 300.87,83.2 283.82,106.25 312.31,103 287.35,117.13 314.7,125.75 286.15,128.5 307.63,147.5 280.44,138.4 292.33,164.5 271.19,145.12 271.44,173.8 260,147.5 248.56,173.8 248.81,145.12 227.67,164.5 239.56,138.4 212.37,147.5 233.85,128.5 205.3,125.75 232.65,117.13 207.69,103 236.18,106.25 219.13,83.2 243.84,97.75 237.63,69.75 254.28,93.1" fill="orange" stroke="#cc7000" stroke-width="2"/>
<polygon points="410,65 412.21,92.59 418.82,65.71 416.58,93.3 427.42,67.83 420.78,94.7 435.56,71.3 424.7,96.76 443.04,76.03 428.24,99.42 449.67,81.9 431.3,102.61 455.26,88.76 433.82,106.25 459.69,96.42 435.71,110.25 462.83,104.7 436.94,114.5 464.6,113.37 437.48,118.89 464.96,122.21 437.3,123.31 463.89,131 436.41,127.65 461.43,139.5 434.84,131.79 457.63,147.5 432.63,135.62 452.6,154.78 429.83,139.05 446.47,161.17 426.52,141.98 439.4,166.49 422.78,144.35 431.56,170.6 418.71,146.08 423.16,173.4 414.41,147.14 414.43,174.82 410,147.5 405.57,174.82 405.59,147.14 396.84,173.4 401.29,146.08 388.44,170.6 397.22,144.35 380.6,166.49 393.48,141.98 373.53,161.17 390.17,139.05 367.4,154.78 387.37,135.62 362.37,147.5 385.16,131.79 358.57,139.5 383.59,127.65 356.11,131 382.7,123.31 355.04,122.21 382.52,118.89 355.4,113.37 383.06,114.5 357.17,104.7 384.29,110.25 360.31,96.42 386.18,106.25 364.74,88.76 388.7,102.61 370.33,81.9 391.76,99.42 376.96,76.03 395.3,96.76 384.44,71.3 399.22,94.7 392.58,67.83 403.42,93.3 401.18,65.71 407.79,92.59" fill="gold" stroke="#c8a000" stroke-width="2"/>
<polygon points="520,65 531.31,104.43 572.31,103 538.31,125.95 552.33,164.5 520,139.25 487.67,164.5 501.69,125.95 467.69,103 508.69,104.43" fill="coral" stroke="#b03a2e" stroke-width="2"/>
<text x="310" y="240" text-anchor="middle" font-size="14" fill="#333">Star() &amp; RegularPolygon() high-level helpers</text>
</svg>